<svg version="1" xmlns="http://www.w3.org/2000/svg" width="933.333" height="933.333" viewBox="0 0 700.000000 700.000000"><path d="M327.8.5c-.2.1-4.2.5-8.9.9s-9.5.8-10.5 1c-1 .2-4.5.7-7.8 1.1-7.3.8-8.9 1.1-20.6 3.6-5.2 1.1-10.6 2.2-12 2.5-5.8 1.2-15.2 3.8-25.5 7.1C185.4 35 135.3 66.8 93.4 111.1 87.9 117 71 137.4 67 143c-19.3 27.3-34.4 55.4-44.5 83-1.5 4.1-3.1 8.4-3.6 9.5-2.4 5.8-10.1 34.3-11.5 42.5-.3 1.4-1.1 5.9-1.9 10-.8 4.1-1.7 9.7-2 12.5-.3 2.7-.8 6.6-1.1 8.5-2.5 18.2-2.5 66.7.1 82.1.2 1.3.7 5 1 8.3 1.4 14 7.5 40.3 13.7 59.6 18.7 57.8 53.1 110.9 98.3 151.4 6.8 6.1 16.4 14.2 20 16.8.6.4 2.4 1.8 4 3.1 12.8 10 39.7 26.3 58 35.2 13.4 6.4 48 19.9 48 18.6 0-.1 2.5.7 5.5 1.7 3 1.1 6 2 6.5 2.1.6.1 2.8.6 5 1.2 5.4 1.5 30.9 6.6 36.5 7.3 2.5.3 7 .8 10 1.1 3 .4 7.1.8 9 1.1 5.2.7 50.6 1.7 50 1.2-.3-.3-3.6-.8-7.5-1.2-6.3-.5-10.3-1.1-21.5-3.1-1.9-.3-7.3-1.5-12-2.6s-9.4-2.2-10.5-2.5c-7.3-1.4-28.2-8.6-41.7-14.3-43.3-18.2-84.2-48.2-116.1-85-17.5-20.2-38.5-54.2-48.6-78.6-1.8-4.4-3.7-8.9-4.2-10-4.1-9.8-11.4-35.1-14.3-49.5-1.9-10-2.5-13.7-4-25.5-2.4-18.1-2.4-50.7-.1-69.8.3-2 .7-5.5 1-7.6 2.8-23.1 12.6-58.8 21.7-79.1 9.8-21.7 17.7-36.2 29.1-52.9 14.5-21.3 37.8-46.8 56.7-62.1 3-2.5 5.7-4.8 6-5.1.3-.3 5.5-4.1 11.5-8.3 35.1-24.8 72.1-41.1 113.6-50 6.3-1.4 13.4-2.7 15.9-3.1 2.5-.3 5.6-.8 7-1 7.8-1.4 27.6-2.7 41.5-2.8 12.1 0 31.5.9 36.7 1.8 3.8.6 9 1.4 14.3 2 7.9 1 31 6.4 42.5 10 60.4 18.6 114.1 56 152.4 106 9.4 12.3 12.5 16.7 16.1 22.7 8.3 14.1 12.1 20.9 16.3 29.4 14.1 28.9 24.3 62.5 28.1 92.9.6 4.9 1.3 10.1 1.5 11.5 1 5.5-.4-42.1-1.4-50-.6-4.7-1.3-10.1-1.5-12-5.2-42.1-23.3-92.7-47.3-132.3-21.4-35.2-52.3-70.1-83.2-93.7-2.5-1.9-4.7-3.7-5-4.1-.9-1.2-27.4-18.5-34.5-22.6C489.2 25.7 446.6 10.6 406 4.4c-2.5-.3-5.2-.8-6-.9-.8-.1-4.4-.6-8-.9-3.6-.4-7.8-.9-9.5-1.2-3.3-.5-54.2-1.4-54.7-.9z"/><path d="M394.7 163.6c-.2.2-3.9.5-8.2.8-4.4.3-8.9.7-10 1-1.1.2-4.1.6-6.6 1-38.2 5.6-81.9 24.1-110.9 47.2-25.3 20.2-44.2 41.1-58.6 64.9-3 4.9-5.9 9.7-6.4 10.5-2 3.1-10.3 20.8-13.2 28-5.2 12.9-11.4 34.5-13.3 46.2-.3 1.8-.8 4.4-1 5.8-.5 2.6-1 6.2-2.1 16.5-.9 8-.9 36.2 0 45.5 4.2 43.6 19.6 85.4 44 119.5 2.8 3.8 5.3 7.2 5.6 7.5.3.3 2.3 2.7 4.4 5.5 8.6 11.5 26.8 28.9 42.2 40.6 18.7 14.1 41.5 26.6 61.9 33.8 5 1.8 10.1 3.7 11.5 4.2 1.4.5 3.4 1.1 4.5 1.3 1.1.3 5.7 1.4 10.2 2.5 8.9 2.3 21.5 4.6 30.3 5.6 3 .3 6.9.8 8.5 1 3.7.6 37 .6 40.8 0 1.5-.2 6-.6 10-1s7.4-.9 7.7-1c.3-.2 2.6-.6 5-1 13.3-1.8 41.5-10.1 54-15.7 30.7-13.9 52.4-28.4 74.9-50.2 39.6-38.5 65.2-90.6 71.6-145.6.3-2.5.8-6.8 1.1-9.5.8-6.6.7-36.4-.1-46.2-.4-4.3-1.2-10.7-1.8-14.3l-1.2-6.4-4.7 6.5C629.2 390 603.9 404 574 407.5c-6.4.8-23.3.8-25.8.1-.9-.2-3.9-.7-6.7-1.1-15.4-1.9-33.9-9.7-48.5-20.6-24.3-18.1-39.6-43.5-44.4-73.7-1.3-8.3-1.4-25.5-.2-32.2.4-1.9.9-4.9 1.2-6.5 3.3-18.2 14.8-39.5 29.3-54.8 9.9-10.4 18.3-16.6 31.3-23.1l10.7-5.4-11.7-5.5c-18.2-8.5-44-16.3-60.2-18.2-3-.3-6.2-.8-7-1-5.1-1.2-46.3-2.9-47.3-1.9z"/></svg>